<svg xmlns="http://www.w3.org/2000/svg" viewBox="0 0 448 512" width="64" height="64">
  <path fill="#ffffff" d="M424.7 299.8c2.9-14 4.7-28.9 4.7-43.8 0-113.5-91.9-205.3-205.3-205.3-14.9 0-29.7 1.7-43.8 4.7C161.3 40.7 196 29 224 29c123.7 0 224 100.3 224 224 0 28-11.7 62.7-23.3 46.8zM224 483c-123.7 0-224-100.3-224-224 0-28 11.7-62.7 23.3-46.8C20.4 226.2 18.6 241.1 18.6 256c0 113.5 91.9 205.3 205.3 205.3 14.9 0 29.7-1.7 43.8-4.7C286.7 471.3 252 483 224 483zm135.2-124.2c-15 15.6-36.8 23.4-65.6 23.4-25.2 0-48.4-5.3-69.5-16-10.4-5.3-15.1-4.8-18.3 3.4-1.9 4.9-5.3 16.6-6.1 20.3-1.6 7.6 1 11 8.2 14.8 21.6 11.5 49.3 17.2 83 17.2 40.7 0 71.9-8.7 93.6-26 21.7-17.3 32.5-41.9 32.5-73.8 0-28.2-7.5-50.6-22.5-67.2-15-16.6-43.9-32.7-86.7-48.3-22.1-8.1-35.8-14.7-41-19.8-5.3-5.1-7.9-11.6-7.9-19.5 0-8.9 3.2-16.1 9.6-21.7 6.4-5.6 15.6-8.4 27.6-8.4 23.4 0 45.4 6 65.9 18 10.7 6.3 14.5 5.2 17.1-3.1 1.6-4.9 4.3-15.4 5-18.7 1.5-6.5-.4-10.2-7-14.1-19.9-11.8-45-17.6-75.3-17.6-35.6 0-63.5 8.1-83.6 24.3-20.1 16.3-30.2 40.2-30.2 71.7 0 27.2 7.7 49 23 65.5 15.3 16.5 44 32.6 86 48 25.3 9.3 40.5 16.9 45.8 22.7 5.2 5.8 7.9 13.5 7.9 23.1 0 10.2-3.6 18.5-10.8 24.8z"/>
</svg>